<?xml version="1.0" encoding="UTF-8" standalone="no"?>
<!DOCTYPE svg PUBLIC "-//W3C//DTD SVG 1.1//EN"
 "http://www.w3.org/Graphics/SVG/1.1/DTD/svg11.dtd">
<!-- Generated by graphviz version 11.0.0 (0)
 -->
<!-- Title: G Pages: 1 -->
<svg width="970pt" height="532pt"
 viewBox="0.00 0.00 970.00 531.50" xmlns="http://www.w3.org/2000/svg" xmlns:xlink="http://www.w3.org/1999/xlink">
<g id="graph0" class="graph" transform="scale(1 1) rotate(0) translate(4 527.5)">
<title>G</title>
<polygon fill="#7f9bcd" stroke="none" points="-4,4 -4,-527.5 966,-527.5 966,4 -4,4"/>
<g id="clust1" class="cluster">
<title>cluster_0</title>
<polygon fill="black" stroke="black" points="144,-425 144,-515.5 838,-515.5 838,-425 144,-425"/>
<text text-anchor="middle" x="491" y="-498.2" font-family="Handlee" font-size="14.00" fill="white">image</text>
</g>
<g id="clust2" class="cluster">
<title>cluster_1</title>
<polygon fill="black" stroke="black" points="8,-216.5 8,-387.5 954,-387.5 954,-216.5 8,-216.5"/>
<text text-anchor="middle" x="481" y="-370.2" font-family="Handlee" font-size="14.00" fill="white">host</text>
</g>
<g id="clust3" class="cluster">
<title>cluster_2</title>
<polygon fill="black" stroke="black" points="299,-8 299,-179 763,-179 763,-8 299,-8"/>
<text text-anchor="middle" x="531" y="-161.7" font-family="Handlee" font-size="14.00" fill="white">image</text>
</g>
<!-- compressed_file_1 -->
<g id="node1" class="node">
<title>compressed_file_1</title>
<polygon fill="#4a192f" stroke="#4a192f" points="291.88,-480 152.12,-480 152.12,-433 291.88,-433 291.88,-480"/>
<text text-anchor="start" x="160.12" y="-462.7" font-family="Handlee" font-size="14.00" fill="white">compressed_file_1 </text>
<text text-anchor="start" x="163.5" y="-443.2" font-family="Handlee" font-size="14.00" fill="white"> mountpoint: /usr</text>
</g>
<!-- /tmp/.../compressed/usr.xx1 -->
<g id="node5" class="node">
<title>/tmp/.../compressed/usr.xx1</title>
<polygon fill="#4a192f" stroke="#4a192f" points="216.25,-352 15.75,-352 15.75,-316 216.25,-316 216.25,-352"/>
<text text-anchor="middle" x="116" y="-330.45" font-family="Handlee" font-size="14.00" fill="white">/tmp/.../compressed/usr.xx1</text>
</g>
<!-- compressed_file_1&#45;&gt;/tmp/.../compressed/usr.xx1 -->
<g id="edge1" class="edge">
<title>compressed_file_1&#45;&gt;/tmp/.../compressed/usr.xx1</title>
<path fill="none" stroke="white" d="M201.81,-432.55C183.84,-412.12 157.56,-382.24 138.83,-360.95"/>
<polygon fill="white" stroke="white" points="141.54,-358.73 132.3,-353.53 136.28,-363.35 141.54,-358.73"/>
<text text-anchor="middle" x="206.12" y="-401.7" font-family="Handlee" font-size="14.00" fill="white">mount</text>
</g>
<!-- compressed_file_2 -->
<g id="node2" class="node">
<title>compressed_file_2</title>
<polygon fill="#4a192f" stroke="#4a192f" points="449.88,-480 310.12,-480 310.12,-433 449.88,-433 449.88,-480"/>
<text text-anchor="start" x="318.12" y="-462.7" font-family="Handlee" font-size="14.00" fill="white">compressed_file_2 </text>
<text text-anchor="start" x="321.5" y="-443.2" font-family="Handlee" font-size="14.00" fill="white"> mountpoint: /usr</text>
</g>
<!-- /tmp/.../compressed/usr.xx2 -->
<g id="node6" class="node">
<title>/tmp/.../compressed/usr.xx2</title>
<polygon fill="#4a192f" stroke="#4a192f" points="435.25,-352 234.75,-352 234.75,-316 435.25,-316 435.25,-352"/>
<text text-anchor="middle" x="335" y="-330.45" font-family="Handlee" font-size="14.00" fill="white">/tmp/.../compressed/usr.xx2</text>
</g>
<!-- compressed_file_2&#45;&gt;/tmp/.../compressed/usr.xx2 -->
<g id="edge2" class="edge">
<title>compressed_file_2&#45;&gt;/tmp/.../compressed/usr.xx2</title>
<path fill="none" stroke="white" d="M371.43,-432.55C364.04,-412.76 353.34,-384.1 345.44,-362.97"/>
<polygon fill="white" stroke="white" points="348.8,-361.96 342.03,-353.82 342.25,-364.41 348.8,-361.96"/>
<text text-anchor="middle" x="386.12" y="-401.7" font-family="Handlee" font-size="14.00" fill="white">mount</text>
</g>
<!-- compressed_file_3 -->
<g id="node3" class="node">
<title>compressed_file_3</title>
<polygon fill="#4a192f" stroke="#4a192f" points="607.88,-480 468.12,-480 468.12,-433 607.88,-433 607.88,-480"/>
<text text-anchor="start" x="476.12" y="-462.7" font-family="Handlee" font-size="14.00" fill="white">compressed_file_3 </text>
<text text-anchor="start" x="479.5" y="-443.2" font-family="Handlee" font-size="14.00" fill="white"> mountpoint: /usr</text>
</g>
<!-- /tmp/.../compressed/usr.xx3 -->
<g id="node7" class="node">
<title>/tmp/.../compressed/usr.xx3</title>
<polygon fill="#4a192f" stroke="#4a192f" points="654.25,-352 453.75,-352 453.75,-316 654.25,-316 654.25,-352"/>
<text text-anchor="middle" x="554" y="-330.45" font-family="Handlee" font-size="14.00" fill="white">/tmp/.../compressed/usr.xx3</text>
</g>
<!-- compressed_file_3&#45;&gt;/tmp/.../compressed/usr.xx3 -->
<g id="edge3" class="edge">
<title>compressed_file_3&#45;&gt;/tmp/.../compressed/usr.xx3</title>
<path fill="none" stroke="white" d="M541.05,-432.55C543.65,-412.94 547.41,-384.63 550.21,-363.56"/>
<polygon fill="white" stroke="white" points="553.64,-364.27 551.49,-353.9 546.7,-363.35 553.64,-364.27"/>
<text text-anchor="middle" x="567.12" y="-401.7" font-family="Handlee" font-size="14.00" fill="white">mount</text>
</g>
<!-- compressed_file_4 -->
<g id="node4" class="node">
<title>compressed_file_4</title>
<polygon fill="#4a192f" stroke="#4a192f" points="830.12,-480 625.88,-480 625.88,-433 830.12,-433 830.12,-480"/>
<text text-anchor="start" x="666.12" y="-462.7" font-family="Handlee" font-size="14.00" fill="white">compressed_file_3 </text>
<text text-anchor="start" x="633.88" y="-443.2" font-family="Handlee" font-size="14.00" fill="white"> mountpoint: /opt/some_app</text>
</g>
<!-- /tmp/.../compressed/opt/some_app.xx1 -->
<g id="node8" class="node">
<title>/tmp/.../compressed/opt/some_app.xx1</title>
<polygon fill="#4a192f" stroke="#4a192f" points="946,-352 672,-352 672,-316 946,-316 946,-352"/>
<text text-anchor="middle" x="809" y="-330.45" font-family="Handlee" font-size="14.00" fill="white">/tmp/.../compressed/opt/some_app.xx1</text>
</g>
<!-- compressed_file_4&#45;&gt;/tmp/.../compressed/opt/some_app.xx1 -->
<g id="edge4" class="edge">
<title>compressed_file_4&#45;&gt;/tmp/.../compressed/opt/some_app.xx1</title>
<path fill="none" stroke="white" d="M743.43,-432.55C756.98,-412.39 776.71,-383.04 790.98,-361.81"/>
<polygon fill="white" stroke="white" points="793.79,-363.91 796.46,-353.65 787.98,-360 793.79,-363.91"/>
<text text-anchor="middle" x="788.12" y="-401.7" font-family="Handlee" font-size="14.00" fill="white">mount</text>
</g>
<!-- /tmp/.../overlay/usr -->
<g id="node9" class="node">
<title>/tmp/.../overlay/usr</title>
<polygon fill="#4a192f" stroke="#4a192f" points="413.12,-260.5 268.88,-260.5 268.88,-224.5 413.12,-224.5 413.12,-260.5"/>
<text text-anchor="middle" x="341" y="-238.95" font-family="Handlee" font-size="14.00" fill="white">/tmp/.../overlay/usr</text>
</g>
<!-- /tmp/.../compressed/usr.xx1&#45;&gt;/tmp/.../overlay/usr -->
<g id="edge5" class="edge">
<title>/tmp/.../compressed/usr.xx1&#45;&gt;/tmp/.../overlay/usr</title>
<path fill="none" stroke="white" d="M159.92,-315.53C196.15,-301.12 247.75,-280.59 286.6,-265.14"/>
<polygon fill="white" stroke="white" points="287.79,-268.43 295.79,-261.48 285.2,-261.93 287.79,-268.43"/>
<text text-anchor="middle" x="279.12" y="-284.7" font-family="Handlee" font-size="14.00" fill="white">overlay_0</text>
</g>
<!-- /tmp/.../compressed/usr.xx2&#45;&gt;/tmp/.../overlay/usr -->
<g id="edge6" class="edge">
<title>/tmp/.../compressed/usr.xx2&#45;&gt;/tmp/.../overlay/usr</title>
<path fill="none" stroke="white" d="M336.16,-315.74C336.99,-303.36 338.12,-286.4 339.09,-272.02"/>
<polygon fill="white" stroke="white" points="342.57,-272.43 339.75,-262.21 335.58,-271.96 342.57,-272.43"/>
<text text-anchor="middle" x="369.12" y="-284.7" font-family="Handlee" font-size="14.00" fill="white">overlay_1</text>
</g>
<!-- /tmp/.../compressed/usr.xx3&#45;&gt;/tmp/.../overlay/usr -->
<g id="edge7" class="edge">
<title>/tmp/.../compressed/usr.xx3&#45;&gt;/tmp/.../overlay/usr</title>
<path fill="none" stroke="white" d="M512.43,-315.53C478.27,-301.18 429.7,-280.77 392.97,-265.34"/>
<polygon fill="white" stroke="white" points="394.44,-262.16 383.86,-261.51 391.73,-268.61 394.44,-262.16"/>
<text text-anchor="middle" x="497.12" y="-284.7" font-family="Handlee" font-size="14.00" fill="white">overlay_2</text>
</g>
<!-- /tmp/.../overlay/opt/some_app -->
<g id="node10" class="node">
<title>/tmp/.../overlay/opt/some_app</title>
<polygon fill="#4a192f" stroke="#4a192f" points="751.75,-260.5 536.25,-260.5 536.25,-224.5 751.75,-224.5 751.75,-260.5"/>
<text text-anchor="middle" x="644" y="-238.95" font-family="Handlee" font-size="14.00" fill="white">/tmp/.../overlay/opt/some_app</text>
</g>
<!-- /tmp/.../compressed/opt/some_app.xx1&#45;&gt;/tmp/.../overlay/opt/some_app -->
<g id="edge8" class="edge">
<title>/tmp/.../compressed/opt/some_app.xx1&#45;&gt;/tmp/.../overlay/opt/some_app</title>
<path fill="none" stroke="white" d="M776.79,-315.53C750.9,-301.49 714.32,-281.64 686.1,-266.34"/>
<polygon fill="white" stroke="white" points="687.91,-263.34 677.45,-261.65 684.58,-269.49 687.91,-263.34"/>
<text text-anchor="middle" x="772.12" y="-284.7" font-family="Handlee" font-size="14.00" fill="white">overlay_0</text>
</g>
<!-- /tmp/fim/run/mount/usr -->
<g id="node11" class="node">
<title>/tmp/fim/run/mount/usr</title>
<polygon fill="#4a192f" stroke="#4a192f" points="486.75,-143.5 307.25,-143.5 307.25,-107.5 486.75,-107.5 486.75,-143.5"/>
<text text-anchor="middle" x="397" y="-121.95" font-family="Handlee" font-size="14.00" fill="white">/tmp/fim/run/mount/usr</text>
</g>
<!-- /tmp/.../overlay/usr&#45;&gt;/tmp/fim/run/mount/usr -->
<g id="edge9" class="edge">
<title>/tmp/.../overlay/usr&#45;&gt;/tmp/fim/run/mount/usr</title>
<path fill="none" stroke="white" d="M349.51,-224.03C358.56,-205.44 373.02,-175.74 383.61,-154"/>
<polygon fill="white" stroke="white" points="386.7,-155.64 387.94,-145.11 380.41,-152.57 386.7,-155.64"/>
<text text-anchor="middle" x="381.62" y="-193.2" font-family="Handlee" font-size="14.00" fill="white">bind</text>
</g>
<!-- /tmp/fim/run/mount/opt/some_app -->
<g id="node12" class="node">
<title>/tmp/fim/run/mount/opt/some_app</title>
<polygon fill="#4a192f" stroke="#4a192f" points="755.38,-143.5 504.62,-143.5 504.62,-107.5 755.38,-107.5 755.38,-143.5"/>
<text text-anchor="middle" x="630" y="-121.95" font-family="Handlee" font-size="14.00" fill="white">/tmp/fim/run/mount/opt/some_app</text>
</g>
<!-- /tmp/.../overlay/opt/some_app&#45;&gt;/tmp/fim/run/mount/opt/some_app -->
<g id="edge10" class="edge">
<title>/tmp/.../overlay/opt/some_app&#45;&gt;/tmp/fim/run/mount/opt/some_app</title>
<path fill="none" stroke="white" d="M641.87,-224.03C639.64,-205.69 636.09,-176.56 633.46,-154.9"/>
<polygon fill="white" stroke="white" points="636.97,-154.76 632.28,-145.26 630.02,-155.61 636.97,-154.76"/>
<text text-anchor="middle" x="653.62" y="-193.2" font-family="Handlee" font-size="14.00" fill="white">bind</text>
</g>
<!-- /usr -->
<g id="node13" class="node">
<title>/usr</title>
<polygon fill="#4a192f" stroke="#4a192f" points="424,-52 370,-52 370,-16 424,-16 424,-52"/>
<text text-anchor="middle" x="397" y="-30.45" font-family="Handlee" font-size="14.00" fill="white">/usr</text>
</g>
<!-- /tmp/fim/run/mount/usr&#45;&gt;/usr -->
<g id="edge11" class="edge">
<title>/tmp/fim/run/mount/usr&#45;&gt;/usr</title>
<path fill="none" stroke="white" d="M397,-107.24C397,-94.86 397,-77.9 397,-63.52"/>
<polygon fill="white" stroke="white" points="400.5,-63.72 397,-53.72 393.5,-63.72 400.5,-63.72"/>
<text text-anchor="middle" x="422.5" y="-76.2" font-family="Handlee" font-size="14.00" fill="white">symlink</text>
</g>
<!-- /opt/some_app -->
<g id="node14" class="node">
<title>/opt/some_app</title>
<polygon fill="#4a192f" stroke="#4a192f" points="687.12,-52 572.88,-52 572.88,-16 687.12,-16 687.12,-52"/>
<text text-anchor="middle" x="630" y="-30.45" font-family="Handlee" font-size="14.00" fill="white">/opt/some_app</text>
</g>
<!-- /tmp/fim/run/mount/opt/some_app&#45;&gt;/opt/some_app -->
<g id="edge12" class="edge">
<title>/tmp/fim/run/mount/opt/some_app&#45;&gt;/opt/some_app</title>
<path fill="none" stroke="white" d="M630,-107.24C630,-94.86 630,-77.9 630,-63.52"/>
<polygon fill="white" stroke="white" points="633.5,-63.72 630,-53.72 626.5,-63.72 633.5,-63.72"/>
<text text-anchor="middle" x="655.5" y="-76.2" font-family="Handlee" font-size="14.00" fill="white">symlink</text>
</g>
</g>
</svg>
